<svg width="20" height="21" viewBox="0 0 20 21" fill="none" xmlns="http://www.w3.org/2000/svg">
<path d="M20 1.99999C19.9896 1.90813 19.9695 1.81762 19.94 1.72999V1.63999C19.8921 1.5287 19.8243 1.42705 19.74 1.33999C19.6551 1.26026 19.557 1.19596 19.45 1.14999H19.36C19.2679 1.0796 19.1624 1.02858 19.05 0.999992H19C18.9006 0.984907 18.7995 0.984907 18.7 0.999992L0.700018 6.99999C0.49995 7.06575 0.325749 7.193 0.202253 7.36358C0.078756 7.53417 0.0122681 7.73939 0.0122681 7.94999C0.0122681 8.16059 0.078756 8.36581 0.202253 8.5364C0.325749 8.70699 0.49995 8.83423 0.700018 8.89999L9.23002 11.74L12.07 20.27C12.1358 20.4701 12.263 20.6443 12.4336 20.7678C12.6042 20.8913 12.8094 20.9577 13.02 20.9577C13.2306 20.9577 13.4358 20.8913 13.6064 20.7678C13.777 20.6443 13.9043 20.4701 13.97 20.27L19.97 2.26999C19.9923 2.18178 20.0023 2.09094 20 1.99999ZM15.3 4.28999L9.73002 9.85999L4.16002 7.99999L15.3 4.28999ZM13 16.84L11.14 11.27L16.71 5.69999L13 16.84Z" fill="#192038"/>
</svg>
